<svg width="252" height="56" viewBox="0 0 252 56" fill="none" xmlns="http://www.w3.org/2000/svg">
<path d="M36.7402 33.3851V39.5951C36.7402 40.3751 36.1102 40.9951 35.3202 40.9951H28.8102C28.0202 40.9951 27.3902 40.3751 27.3902 39.5951V37.1851C27.3902 36.7951 27.2302 36.4451 27.0002 36.2151L20.6102 29.9251C19.7002 29.0351 18.2002 29.6551 18.2002 30.8951V39.5851C18.2002 40.3651 17.5702 40.9851 16.7802 40.9851H14.6902C14.3002 40.9851 13.9402 40.8251 13.7002 40.5951L10.1502 37.1051C9.87023 36.8351 9.76023 36.4851 9.76023 36.1351V16.3951C9.74023 15.6151 10.3702 14.9951 11.1602 14.9951H18.0702C18.4602 14.9951 18.8202 15.1551 19.0602 15.3851L36.3502 32.3851C36.5902 32.6951 36.7402 33.0451 36.7402 33.3951V33.3851Z" fill="#F25B35" stroke="white" stroke-miterlimit="10"/>
<path d="M27.1604 14.9951H35.8904C36.2704 14.9951 36.6204 15.1451 36.8904 15.4251L53.3204 31.9751C53.5904 32.2451 53.7404 32.5951 53.7404 32.9851V39.5751C53.7404 40.3551 53.1204 41.0051 52.3204 41.0051H46.1604C45.3904 41.0051 44.7404 40.3851 44.7404 39.5751V36.6351C44.7404 36.2451 44.5904 35.8951 44.3204 35.6251L26.1604 17.4351C25.2804 16.5451 25.8904 14.9951 27.1604 14.9951Z" fill="#F25B35" stroke="white" stroke-miterlimit="10"/>
<path d="M53.5404 17.7851C53.6604 17.9051 53.7404 18.0651 53.7404 18.2251V26.3651C53.7404 26.9251 53.0604 27.2051 52.6704 26.8051L41.9304 16.0751C41.5304 15.6751 41.8104 14.9951 42.3704 14.9951L50.7604 15.2351C50.9204 15.2351 51.0804 15.3151 51.2004 15.4351L53.5504 17.7851H53.5404Z" fill="#131111" stroke="white" stroke-miterlimit="10"/>
<path d="M82.2202 17.9951L77.9702 29.0851H77.3902L73.1002 17.9951H65.7402V38.9951H70.5702V23.3551L75.0902 34.7451H79.9202L84.4802 23.1751V38.9951H89.7402V17.9951H82.2202Z" fill="#131111" stroke="white" stroke-miterlimit="10"/>
<path d="M103.6 27.0251L110.28 17.9951H104.25L96.9602 27.8351V18.0351H91.7402V38.9951H96.9602V29.1851H98.7302L105.41 38.9951H111.74L103.6 27.0251Z" fill="#131111" stroke="white" stroke-miterlimit="10"/>
<path d="M121.41 38.9949C119.55 38.9949 117.93 38.6849 116.61 38.0249C115.26 37.3649 114.17 36.5049 113.28 35.4149C112.43 34.3249 111.77 33.1949 111.35 31.9149C110.92 30.6649 110.73 29.4649 110.73 28.2549V27.6349C110.73 26.3149 110.92 25.0249 111.35 23.7849C111.77 22.5349 112.43 21.3749 113.32 20.3549C114.21 19.3449 115.29 18.5249 116.61 17.9049C117.93 17.2849 119.47 17.0049 121.25 17.0049C123.15 17.0049 124.81 17.3549 126.28 18.0549C127.75 18.7549 128.91 19.7649 129.8 21.0549C130.69 22.3349 131.19 23.8149 131.35 25.5349H126.09C125.97 24.7949 125.66 24.1749 125.24 23.6649C124.81 23.1149 124.23 22.7349 123.58 22.4149C122.88 22.1049 122.11 21.9849 121.26 21.9849C120.41 21.9849 119.71 22.1449 119.06 22.4149C118.4 22.6849 117.86 23.1149 117.44 23.6249C117.01 24.1349 116.67 24.7949 116.43 25.5349C116.2 26.2749 116.08 27.1349 116.08 28.0249C116.08 28.9149 116.2 29.7749 116.43 30.5149C116.66 31.2549 117.01 31.8749 117.47 32.4249C117.93 32.9749 118.48 33.3549 119.17 33.6349C119.83 33.9049 120.6 34.0649 121.45 34.0649C122.77 34.0649 123.89 33.7549 124.81 33.0949C125.74 32.4349 126.28 31.5749 126.47 30.4849H131.73C131.58 32.0449 131.03 33.4849 130.18 34.7649C129.33 36.0449 128.13 37.1049 126.66 37.8449C125.15 38.6249 123.41 39.0149 121.4 39.0149L121.41 38.9949Z" fill="#131111" stroke="white" stroke-miterlimit="10"/>
<path d="M161.74 27.3151H150.24V31.0251H155.24V32.1451C154.9 32.6551 154.44 33.0851 153.85 33.4451C153 33.9551 151.99 34.1851 150.83 34.1851C149.9 34.1851 149.09 34.0251 148.35 33.7151C147.65 33.4451 147.03 32.9751 146.57 32.4251C146.1 31.8351 145.72 31.1751 145.48 30.4351C145.21 29.6551 145.09 28.8351 145.09 27.9751C145.09 27.1151 145.21 26.2951 145.44 25.5551C145.67 24.8151 146.02 24.1851 146.45 23.6451C146.88 23.0951 147.42 22.7051 148.08 22.3951C148.74 22.1251 149.47 21.9651 150.33 21.9651C151.19 21.9651 151.99 22.0851 152.69 22.3951C153.39 22.7051 153.97 23.0951 154.39 23.6051C154.82 24.1151 155.09 24.6951 155.2 25.3251H160.47C160.32 23.6851 159.81 22.2351 158.92 20.9851C158.03 19.7351 156.87 18.7551 155.39 18.0551C153.92 17.3551 152.21 16.9951 150.32 16.9951C148.54 16.9951 146.99 17.3051 145.67 17.9351C144.35 18.5651 143.27 19.3851 142.38 20.3951C141.49 21.4151 140.83 22.5851 140.4 23.8351C139.97 25.0851 139.74 26.3751 139.74 27.6651V28.2951C139.74 29.4651 139.93 30.7151 140.36 31.9651C140.79 33.2151 141.44 34.3851 142.34 35.4451C143.23 36.5051 144.39 37.3551 145.79 38.0251C147.22 38.6851 148.89 39.0051 150.83 39.0051C152.92 39.0051 154.78 38.5751 156.33 37.7951C157.96 36.9751 159.2 35.8451 160.05 34.3151V31.0351H161.75V27.3251L161.74 27.3151Z" fill="#131111" stroke="white" stroke-miterlimit="10"/>
<path d="M175.51 37.9954H181.74L176.57 30.7454C177.78 30.2354 178.74 29.5054 179.4 28.5254C180.11 27.4754 180.47 26.1854 180.47 24.6254V24.1554C180.47 22.5954 180.11 21.2754 179.4 20.2254C178.69 19.1354 177.65 18.3554 176.31 17.8054C174.96 17.2554 173.37 16.9854 171.55 16.9854H162.74V37.9854H168.14V31.6354H171.25L175.52 37.9854L175.51 37.9954ZM168.13 21.3954H171.86C172.5 21.3954 173.05 21.5554 173.53 21.7854C173.97 22.0154 174.32 22.3654 174.6 22.8354C174.88 23.3054 175 23.8454 175 24.4754C175 25.1054 174.88 25.6054 174.6 26.0754C174.36 26.5454 174.01 26.8954 173.53 27.1254C173.05 27.3954 172.5 27.5154 171.86 27.5154H168.13V21.3954Z" fill="#131111" stroke="white" stroke-miterlimit="10"/>
<path d="M192.74 38.9949C190.87 38.9949 189.26 38.6849 187.89 38.0249C186.51 37.3649 185.37 36.5049 184.45 35.4149C183.53 34.3249 182.85 33.1949 182.43 31.9149C181.97 30.6649 181.74 29.4649 181.74 28.2549V27.6349C181.74 26.3149 181.97 25.0249 182.43 23.7849C182.89 22.5349 183.57 21.3749 184.53 20.3549C185.45 19.3449 186.63 18.5249 187.97 17.9049C189.35 17.2849 190.91 17.0049 192.74 17.0049C194.57 17.0049 196.1 17.3149 197.48 17.9049C198.86 18.5249 200 19.3449 200.92 20.3549C201.84 21.3649 202.56 22.5349 203.02 23.7849C203.48 25.0349 203.75 26.3549 203.75 27.6349V28.2549C203.75 29.4249 203.52 30.6649 203.06 31.9149C202.6 33.1649 201.91 34.3249 201 35.4149C200.08 36.5049 198.94 37.3649 197.56 38.0249C196.22 38.6449 194.58 38.9949 192.75 38.9949H192.74ZM192.74 34.0149C193.62 34.0149 194.42 33.8549 195.15 33.5449C195.88 33.2349 196.45 32.8049 196.98 32.2649C197.48 31.7149 197.86 31.0549 198.12 30.3549C198.39 29.6149 198.5 28.8349 198.5 27.9749C198.5 27.1149 198.35 26.2249 198.08 25.4849C197.81 24.7449 197.43 24.1249 196.93 23.5749C196.43 23.0249 195.82 22.6449 195.1 22.3649C194.37 22.0949 193.61 21.9349 192.73 21.9349C191.85 21.9349 191.05 22.0949 190.32 22.3649C189.59 22.6349 189.02 23.0649 188.49 23.5749C187.99 24.1249 187.61 24.7449 187.35 25.4849C187.08 26.2249 186.97 27.0449 186.97 27.9749C186.97 28.8349 187.08 29.6149 187.35 30.3549C187.62 31.0949 188 31.7149 188.49 32.2649C188.99 32.8149 189.6 33.2349 190.32 33.5449C191.05 33.8549 191.85 34.0149 192.73 34.0149H192.74Z" fill="#131111" stroke="white" stroke-miterlimit="10"/>
<path d="M213.76 38.9951C211.83 38.9951 210.18 38.6151 208.85 37.8851C207.53 37.1551 206.51 36.1251 205.79 34.7851C205.07 33.4451 204.73 31.8751 204.73 30.0451V17.9951H209.86V30.1551C209.86 30.9551 210.01 31.6451 210.31 32.2551C210.61 32.8651 211.06 33.3251 211.63 33.6351C212.2 33.9451 212.91 34.0951 213.74 34.0951C214.57 34.0951 215.25 33.9451 215.85 33.6351C216.42 33.3251 216.87 32.8751 217.13 32.2951C217.43 31.7251 217.58 30.9951 217.58 30.1951V17.9951H222.71V30.0851C222.71 31.9251 222.37 33.4851 221.69 34.8251C221.01 36.1651 219.99 37.1951 218.63 37.9251C217.27 38.6151 215.65 38.9951 213.72 38.9951H213.76Z" fill="#131111" stroke="white" stroke-miterlimit="10"/>
<path d="M240.67 20.4651C239.96 19.3351 238.92 18.4751 237.61 17.8951C236.3 17.3151 234.71 16.9951 232.88 16.9951H224.74V37.9951H230.14V32.4251H232.88C234.71 32.4251 236.29 32.1551 237.61 31.5251C238.92 30.9051 239.95 30.0451 240.67 28.9151C241.39 27.8251 241.74 26.4951 241.74 24.9451V24.4751C241.74 22.9151 241.38 21.5951 240.67 20.4651ZM235.9 26.4251C235.62 26.8951 235.23 27.2451 234.75 27.5151C234.27 27.7851 233.72 27.9051 233.04 27.9051H230.14V21.5551H233.04C233.68 21.5551 234.27 21.7151 234.75 21.9451C235.27 22.2151 235.62 22.5651 235.9 23.0351C236.18 23.5051 236.3 24.0851 236.3 24.7451C236.3 25.3651 236.18 25.9551 235.9 26.4251Z" fill="#131111" stroke="white" stroke-miterlimit="10"/>
</svg>
